<?xml version="1.0" encoding="UTF-8"?>
<svg id="_圖層_1" data-name="圖層 1" xmlns="http://www.w3.org/2000/svg" viewBox="206.42 248.67 429.042 97.94">
  <defs>
    <style>
      .cls-1 {
        fill: #cca858;
      }
    </style>
  </defs>
  <path class="cls-1" d="M506.29,263.44c.1,1.57-.05,3.24-.54,4.82l-.74,2.11h-.05l-22.34,74.24h-30.08l22.34-74.24h-23.44l-22.44,74.24h-29.88l22.34-74.24h-25.07l-22.44,74.24h-29.93l28.24-93.11h122.68c.79,0,1.52.1,2.21.29,5.55,1.13,9.29,6,9.14,11.65Z"/>
  <path class="cls-1" d="M609.53,288.65h-69.72l5.4-16.93h59.89l-2.32,7.41,30.54-6.93c1.36-9.92-7.27-21.53-17.65-21.53h-77.05c-10.41,0-18.85,8.03-21.16,17.89l-6.11,19.3c-2.22,8.47,4.57,17.1,13.45,17.1l69.77-.12-4.76,16.94h-59.96l2.32-7.68-30.89,7.2c-1.36,9.92,6.36,21.57,16.74,21.57h77.1c10.41,0,18.97-6.63,21.29-16.48l6.14-20.82c2.08-8.44-4.23-16.93-13.03-16.93Z"/>
  <path class="cls-1" d="M259.68,273.74l-4.51,14.4h80.79l-5.75,18.45h-80.79l-4.19,13.3h94.27l-7.41,22.96h-123.67l24.2-77.37c2.74-8.75,10.84-14.7,20-14.7h108.27l-7.36,22.96h-93.86Z"/>
</svg>